<svg width="24" height="25" viewBox="0 0 24 25" fill="none" xmlns="http://www.w3.org/2000/svg">
<path d="M17 2.02539H7C4.23858 2.02539 2 4.26397 2 7.02539V17.0254C2 19.7868 4.23858 22.0254 7 22.0254H17C19.7614 22.0254 22 19.7868 22 17.0254V7.02539C22 4.26397 19.7614 2.02539 17 2.02539Z" stroke="white" stroke-width="2" stroke-linecap="round" stroke-linejoin="round"/>
<path d="M16 11.3954C16.1234 12.2277 15.9813 13.0777 15.5938 13.8245C15.2063 14.5713 14.5931 15.1769 13.8416 15.5551C13.0901 15.9334 12.2384 16.065 11.4078 15.9314C10.5771 15.7977 9.80976 15.4055 9.21484 14.8106C8.61991 14.2157 8.22773 13.4483 8.09406 12.6177C7.9604 11.787 8.09206 10.9353 8.47032 10.1838C8.84858 9.4323 9.45418 8.81919 10.201 8.43169C10.9478 8.04419 11.7978 7.90204 12.63 8.02545C13.4789 8.15133 14.2648 8.54691 14.8717 9.15375C15.4785 9.7606 15.8741 10.5465 16 11.3954Z" stroke="white" stroke-width="2" stroke-linecap="round" stroke-linejoin="round"/>
<path d="M17.5 6.52539H17.51" stroke="white" stroke-width="2" stroke-linecap="round" stroke-linejoin="round"/>
</svg>
