<svg width="153" height="42" viewBox="0 0 153 42" fill="none" xmlns="http://www.w3.org/2000/svg">
    <path
      d="M6.44496 33.7083V9.06313H0.499259V33.7083H6.44496ZM0.975822 5.95412C1.62637 6.60467 2.42064 6.92995 3.35864 6.92995C4.29664 6.92995 5.09091 6.60467 5.74146 5.95412C6.392 5.30358 6.71728 4.50931 6.71728 3.57131C6.71728 2.66356 6.39201 1.88442 5.74146 1.23388C5.09091 0.58333 4.29664 0.258057 3.35864 0.258057C2.42064 0.258057 1.62637 0.583326 0.975822 1.23388C0.325276 1.88442 0 2.66357 0 3.57131C0 4.50931 0.325273 5.30358 0.975822 5.95412Z"
      fill="url(#paint0_linear_1_1771)" />
    <path d="M8.98657 0.394287V33.5268H14.9323V13.0573H18.9717L20.3787 7.79237H14.9323V0.394287H8.98657Z"
      fill="url(#paint1_linear_1_1771)" />
    <path
      d="M40.0314 28.4887L33.9496 27.8533L31.9072 32.5281L39.0329 33.2543C42.1495 33.3451 44.6382 32.8534 46.4991 31.7792C48.36 30.7051 49.5476 29.109 50.062 26.9909C50.2133 26.2345 50.2889 25.599 50.2889 25.0846C50.2889 22.9968 49.2601 21.378 47.2026 20.2282C46.0225 19.6231 44.0709 18.9877 41.3477 18.322C38.9573 17.6866 37.6259 17.2932 37.3536 17.1419C36.4156 16.7788 35.9466 16.325 35.9466 15.7803C35.9466 15.5988 35.9617 15.4323 35.992 15.2811C36.2643 14.1918 37.3687 13.6623 39.3053 13.6925L45.7956 14.2825L47.4295 9.88C44.2222 9.39588 41.4536 9.15381 39.1237 9.15381C37.1872 9.15381 35.6743 9.35048 34.585 9.74384C33.2839 10.1977 32.2551 11.0601 31.4987 12.3309C30.7422 13.6017 30.364 14.9936 30.364 16.5065C30.364 17.7471 30.6969 18.7759 31.3625 19.5928C32.0282 20.4098 32.9359 21.0755 34.0857 21.5898C35.2356 22.1042 36.7333 22.6186 38.5791 23.133L40.1222 23.4961C42.0285 23.95 43.1026 24.2526 43.3447 24.4038C44.1617 24.7972 44.5701 25.357 44.5701 26.0832C44.5701 26.295 44.555 26.4463 44.5248 26.537C44.3735 27.233 43.9499 27.7398 43.2539 28.0575C42.558 28.3752 41.4838 28.5189 40.0314 28.4887Z"
      fill="url(#paint2_linear_1_1771)" />
    <path
      d="M76.2048 41.7418L76.2502 20.9092C76.2502 18.7609 75.6904 16.7638 74.5708 14.9181C73.4513 13.1026 71.9459 11.6578 70.0548 10.5837C68.1637 9.50949 66.1289 8.97241 63.9503 8.97241C61.7414 8.97241 59.699 9.51705 57.823 10.6063C55.9168 11.7259 54.4114 13.2312 53.307 15.1223C52.2026 17.0135 51.6504 19.0635 51.6504 21.2723C51.6504 23.5114 52.2102 25.5538 53.3297 27.3995C54.419 29.3058 55.9092 30.8111 57.8003 31.9155C59.6915 33.02 61.7414 33.5722 63.9503 33.5722C66.5525 33.5722 68.9428 32.8006 71.1214 31.2574V39.4725L76.2048 41.7418ZM70.1456 17.7094C70.7962 18.8138 71.1214 20.0015 71.1214 21.2723C71.1214 22.5734 70.8037 23.7686 70.1683 24.8579C69.5026 25.9472 68.6176 26.8171 67.5132 27.4676C66.4087 28.1182 65.2211 28.4434 63.9503 28.4434C62.6189 28.4434 61.4237 28.1106 60.3647 27.4449C59.2754 26.8095 58.4055 25.9396 57.7549 24.8352C57.1044 23.7308 56.7791 22.5431 56.7791 21.2723C56.7791 19.9409 57.112 18.7458 57.7776 17.6867C58.4131 16.5974 59.283 15.7275 60.3874 15.077C61.4918 14.4264 62.6794 14.1011 63.9503 14.1011C65.2514 14.1011 66.4466 14.4189 67.5359 15.0543C68.6251 15.7199 69.4951 16.605 70.1456 17.7094Z"
      fill="url(#paint3_linear_1_1771)" />
    <path
      d="M100.714 9.06323H95.6304V22.8155C95.6304 24.5705 95.0253 25.9548 93.815 26.9684C92.6046 27.9821 91.1371 28.4889 89.4124 28.4889C87.6575 28.4889 86.1748 27.9821 84.9645 26.9684C83.7542 25.9548 83.149 24.5705 83.149 22.8155V9.06323H78.0657V22.8155C78.0657 24.9335 78.5952 26.8247 79.6542 28.4889C80.7132 30.1228 82.1051 31.3861 83.8298 32.2787C85.5545 33.1713 87.4154 33.6176 89.4124 33.6176C91.3187 33.6176 93.1795 33.1789 94.995 32.3014C96.7802 31.3936 98.1948 30.1077 99.2387 28.4435C100.283 26.7793 100.805 24.9033 100.805 22.8155L100.714 9.06323Z"
      fill="url(#paint4_linear_1_1771)" />
    <path
      d="M120.661 17.7094C121.312 18.8138 121.637 20.0015 121.637 21.2723C121.637 22.5734 121.32 23.7686 120.684 24.8579C120.018 25.9472 119.133 26.8171 118.029 27.4676C116.925 28.1182 115.737 28.4434 114.466 28.4434C113.135 28.4434 111.94 28.1106 110.881 27.4449C109.791 26.8095 108.921 25.9396 108.271 24.8352C107.62 23.7308 107.295 22.5431 107.295 21.2723C107.295 19.9409 107.628 18.7458 108.294 17.6867C108.929 16.5974 109.799 15.7275 110.903 15.077C112.008 14.4264 113.195 14.1012 114.466 14.1012C115.767 14.1012 116.962 14.4189 118.052 15.0543C119.141 15.72 120.011 16.605 120.661 17.7094ZM121.637 31.2574V33.436H126.721L126.766 20.9092C126.766 18.7609 126.206 16.7639 125.087 14.9181C123.967 13.1026 122.462 11.6578 120.571 10.5837C118.68 9.50949 116.645 8.97241 114.466 8.97241C112.257 8.97241 110.215 9.51706 108.339 10.6063C106.433 11.7259 104.927 13.2312 103.823 15.1223C102.718 17.0135 102.166 19.0635 102.166 21.2723C102.166 23.5114 102.726 25.5538 103.846 27.3995C104.935 29.3058 106.425 30.8111 108.316 31.9155C110.207 33.02 112.257 33.5722 114.466 33.5722C117.068 33.5722 119.459 32.8006 121.637 31.2574Z"
      fill="url(#paint5_linear_1_1771)" />
    <path
      d="M152.727 21.6808L152.682 0.348877L147.598 3.0721V11.3325C145.42 9.78938 143.03 9.0178 140.427 9.0178C138.218 9.0178 136.176 9.56244 134.3 10.6517C132.394 11.7713 130.888 13.2766 129.784 15.1677C128.68 17.0589 128.127 19.1088 128.127 21.3177C128.127 23.5568 128.687 25.5992 129.807 27.4449C130.896 29.3512 132.386 30.8565 134.277 31.9609C136.169 33.0653 138.218 33.6176 140.427 33.6176C142.606 33.6176 144.648 33.0729 146.555 31.9836C148.461 30.8943 149.966 29.442 151.071 27.6265C152.175 25.811 152.727 23.8291 152.727 21.6808ZM146.623 17.7548C147.273 18.8592 147.598 20.0468 147.598 21.3177C147.598 22.6188 147.281 23.814 146.645 24.9032C145.98 25.9925 145.095 26.8625 143.99 27.513C142.886 28.1636 141.698 28.4888 140.427 28.4888C139.096 28.4888 137.901 28.156 136.842 27.4903C135.752 26.8549 134.883 25.985 134.232 24.8806C133.581 23.7761 133.256 22.5885 133.256 21.3177C133.256 19.9863 133.589 18.7911 134.255 17.7321C134.89 16.6428 135.76 15.7729 136.864 15.1224C137.969 14.4718 139.156 14.1465 140.427 14.1465C141.728 14.1465 142.924 14.4642 144.013 15.0997C145.102 15.7653 145.972 16.6504 146.623 17.7548Z"
      fill="url(#paint6_linear_1_1771)" />
    <path fill-rule="evenodd" clip-rule="evenodd"
      d="M138.633 16.9041L134.222 21.3154L138.633 25.7263L139.841 24.5179L136.639 21.3154L139.841 18.1124L138.633 16.9041Z"
      fill="url(#paint7_linear_1_1771)" />
    <path fill-rule="evenodd" clip-rule="evenodd"
      d="M141.03 18.1124L142.238 16.9041L146.65 21.3154L142.238 25.7263L141.03 24.5179L144.233 21.3154L141.03 18.1124Z"
      fill="url(#paint8_linear_1_1771)" />
    <defs>
      <linearGradient id="paint0_linear_1_1771" x1="0" y1="20.9999" x2="152.727" y2="20.9999"
        gradientUnits="userSpaceOnUse">
        <stop stop-color="#00968F" />
        <stop offset="1" stop-color="#00FFF4" />
      </linearGradient>
      <linearGradient id="paint1_linear_1_1771" x1="-5.40797e-05" y1="21" x2="152.727" y2="21"
        gradientUnits="userSpaceOnUse">
        <stop stop-color="#00968F" />
        <stop offset="1" stop-color="#00FFF4" />
      </linearGradient>
      <linearGradient id="paint2_linear_1_1771" x1="0.00011683" y1="20.9998" x2="152.727" y2="20.9998"
        gradientUnits="userSpaceOnUse">
        <stop stop-color="#00968F" />
        <stop offset="1" stop-color="#00FFF4" />
      </linearGradient>
      <linearGradient id="paint3_linear_1_1771" x1="-1.70295e-05" y1="21" x2="152.727" y2="21"
        gradientUnits="userSpaceOnUse">
        <stop stop-color="#00968F" />
        <stop offset="1" stop-color="#00FFF4" />
      </linearGradient>
      <linearGradient id="paint4_linear_1_1771" x1="4.14205e-05" y1="21" x2="152.727" y2="21"
        gradientUnits="userSpaceOnUse">
        <stop stop-color="#00968F" />
        <stop offset="1" stop-color="#00FFF4" />
      </linearGradient>
      <linearGradient id="paint5_linear_1_1771" x1="0.000134334" y1="21" x2="152.727" y2="21"
        gradientUnits="userSpaceOnUse">
        <stop stop-color="#00968F" />
        <stop offset="1" stop-color="#00FFF4" />
      </linearGradient>
      <linearGradient id="paint6_linear_1_1771" x1="-5.05773e-05" y1="21" x2="152.727" y2="21"
        gradientUnits="userSpaceOnUse">
        <stop stop-color="#00968F" />
        <stop offset="1" stop-color="#00FFF4" />
      </linearGradient>
      <linearGradient id="paint7_linear_1_1771" x1="-4.7447e-05" y1="21" x2="152.727" y2="21"
        gradientUnits="userSpaceOnUse">
        <stop stop-color="#00968F" />
        <stop offset="1" stop-color="#00FFF4" />
      </linearGradient>
      <linearGradient id="paint8_linear_1_1771" x1="-5.24105e-05" y1="21" x2="152.727" y2="21"
        gradientUnits="userSpaceOnUse">
        <stop stop-color="#00968F" />
        <stop offset="1" stop-color="#00FFF4" />
      </linearGradient>
    </defs>
  </svg>