<svg width="24" height="24" viewBox="0 0 24 24" fill="none" xmlns="http://www.w3.org/2000/svg">
<path d="M18.561 13.1579C17.459 13.1579 16.426 12.6909 15.487 11.9309L15.715 10.8549L15.723 10.8129C15.93 9.66994 16.572 7.75294 18.562 7.75294C20.054 7.75294 21.265 8.96494 21.265 10.4559C21.264 11.9449 20.053 13.1579 18.561 13.1579ZM18.561 5.01794C16.022 5.01794 14.051 6.66694 13.251 9.38394C12.031 7.54994 11.103 5.34794 10.564 3.49194H7.828V10.6039C7.826 12.0099 6.687 13.1499 5.281 13.1519C3.876 13.1499 2.738 12.0089 2.736 10.6039V3.49194H0V10.6039C0 13.5179 2.37 15.9069 5.281 15.9069C8.194 15.9069 10.564 13.5179 10.564 10.6039V9.41394C11.093 10.5209 11.746 11.6429 12.538 12.6349L10.865 20.5079H13.662L14.875 14.7979C15.938 15.4769 17.16 15.9069 18.561 15.9069C21.561 15.9069 24 13.4549 24 10.4569C24 7.45694 21.561 5.01794 18.561 5.01794Z" fill="white"/>
</svg>
